# xmcd CD database file
#
# Track frame offsets:
#	150
#	17602
#	35853
#	68822
#	105352
#	143594
#
# Disc length: 2326 seconds
#
# Revision: 2
# Processed by: cddbd v1.4b41PL1 Copyright (c) Steve Scherf et al.
# Submitted via: Feurio! 1.50.2ß - http://www.feurio.com
#
DISCID=47091406
DTITLE=Kristine W - Land Of The Living
DYEAR=1900
DGENRE=
TTITLE0=Land Of The Living, radio edit
TTITLE1=Land Of The Living, radio mix
TTITLE2=Land Of The Living, club mix
TTITLE3=Land Of The Living, vocal 12"
TTITLE4=Land Of The Living, lost vocal
TTITLE5=Land Of The Living, dub mix
EXTD=
EXTT0=
EXTT1=
EXTT2=
EXTT3=
EXTT4=
EXTT5=
PLAYORDER=
